<svg version="1.1" width="24" height="24" viewBox="0 0 24 14" style="fill: #314471;" xmlns="http://www.w3.org/2000/svg" xml:space="preserve"><path d="M20.7,9C22.4,9,24,8.3,24,7.5S22.4,6,20.7,6s-3.3,0.7-3.3,1.5S18.9,9,20.7,9z M20.7,7.6 c-0.2-0.1-0.8-0.1-0.8-0.4c0-0.2,0.2-0.4,0.6-0.4V6.7h0.2v0.1c0.2,0,0.3,0,0.5,0.1l-0.1,0.2C21.1,7,20.9,7,20.7,7l0,0 c-0.3,0-0.3,0.2-0.1,0.3c0.4,0.1,0.8,0.2,0.8,0.5c0,0.2-0.3,0.4-0.6,0.4v0.1h-0.2V8.2c-0.2,0-0.5,0-0.6-0.1L20,7.8 c0.2,0,0.4,0.1,0.6,0.1l0.1,0C21,7.9,21,7.7,20.7,7.6z M20.7,13c1.3,0,2.6-0.3,3.3-0.9v0.4c0,0.8-1.6,1.5-3.3,1.5s-3.3-0.7-3.3-1.5 v-0.4C18.1,12.7,19.4,13,20.7,13z M20.7,9.7c1.3,0,2.6-0.3,3.3-0.9v0.4c0,0.8-1.6,1.5-3.3,1.5s-3.3-0.7-3.3-1.5V8.7 C18.1,9.3,19.4,9.7,20.7,9.7z M20.7,11.3c1.3,0,2.6-0.3,3.3-0.9v0.4c0,0.8-1.6,1.5-3.3,1.5s-3.3-0.7-3.3-1.5v-0.4 C18.1,11,19.4,11.3,20.7,11.3z M12.2,8.2c0,0.6-0.5,0.9-1.1,1v0.4h-0.4V9.3c-0.4,0-0.7-0.1-1.1-0.3l0.2-0.6c0.3,0.1,0.8,0.3,1.1,0.2 c0.4-0.1,0.5-0.5,0-0.7c-0.3-0.1-1.3-0.3-1.3-1.1c0-0.5,0.4-0.9,1-1V5.4h0.4v0.4c0.3,0,0.5,0.1,0.9,0.1l-0.1,0.6 c-0.3-0.1-0.6-0.2-0.9-0.2c-0.5,0-0.6,0.5-0.2,0.7C11.4,7.3,12.2,7.5,12.2,8.2z M18,1H1v10H0V0h18C18,0,18,1,18,1z M2,2v11h14V7.5 c0-1.8,2-2.7,4-2.9V2C20,2,2,2,2,2z M11,11c-1.9,0-3.5-1.6-3.5-3.5S9.1,4,11,4s3.5,1.6,3.5,3.5S12.9,11,11,11z"/></svg>
