<svg xmlns="http://www.w3.org/2000/svg" width="20" height="20" viewBox="0 0 512 512" style="fill:#6F737E;"><path d="M255.5,1C114.4,1,0,115.4,0,256.5S114.4,512,255.5,512S511,397.6,511,256.5S396.6,1,255.5,1z M379,342.6c1.7,1.7,2.6,4,2.6,6.4s-0.9,4.8-2.6,6.4l-24.6,24.8c-1.8,1.8-4.1,2.6-6.4,2.6s-4.7-0.9-6.4-2.6l-86.1-86.2l-86,86.3 c-1.7,1.8-4.1,2.6-6.4,2.6s-4.7-0.9-6.4-2.6l-24.6-24.8c-1.7-1.7-2.6-4-2.6-6.4c0-2.4,0.9-4.8,2.6-6.4l86.3-86.7l-86.6-85.5 c-3.5-3.5-3.5-9.4,0-12.9l24.6-24.8c1.7-1.7,4-2.6,6.4-2.6c2.4,0,4.7,0.9,6.4,2.6l86.3,85.2l86.3-85.2c1.7-1.7,4-2.6,6.4-2.6 s4.7,0.9,6.4,2.6l24.6,24.8c3.5,3.5,3.5,9.4,0,12.9L292.8,256L379,342.6z"/></svg>

