<svg xmlns="http://www.w3.org/2000/svg" viewBox="0 0 1026 1026"><circle class="layer_1" cx="524.61" cy="513" r="450.44" style="fill: #ffffff;"/><path class="layer_2" d="M481.14-.06A514.27,514.27,0,0,0,289.75,49.62C145.32,119.18,41.11,253,9.29,409.69A513.8,513.8,0,0,0,50,735c69.67,144.2,203.22,248,359.71,279.76A513,513,0,1,0,481.14-.06ZM690.39,279.22,690,335.17l-54.42.59c-61.51.71-57.72,0-64.34,10.41-6.75,10.77-7.22,14.43-7.22,58.44v40H690.63V549.86H564.06V864.51H442.22V549.86H333.4V444.59H442.22v-38c0-41.28,1.19-54.06,6.63-72.87,14.9-51.33,54.65-92.62,101.37-105,17-4.61,24.37-5,84.58-5.2l55.83-.12Z" style="fill:#3b5998"/></svg>
