<svg version="1.1" xmlns="http://www.w3.org/2000/svg" viewBox="0 0 32 32" style="" xml:space="preserve"><circle style="fill: #FFFFFF;" cx="16" cy="16" r="11.5" class="layer_1"/><path style="fill: #0BA4E0;" class="layer_2" d="M16,0C7.2,0,0,7.2,0,16s7.2,16,16,16s16-7.2,16-16S24.8,0,16,0z M24.7,10.7c-0.1,0.1-0.5,0.6-0.9,1 c-0.7,0.7-0.8,0.8-0.8,1.4c0,0.9-0.4,2.8-0.9,3.9c-0.8,2-2.5,4-4.2,5c-2.4,1.4-5.6,1.8-8.3,1c-0.9-0.3-2.5-1-2.5-1.1 c0,0,0.5-0.1,1-0.1c1.2,0,2.4-0.4,3.4-1l0.7-0.4L11.5,20c-1.1-0.4-2.1-1.3-2.4-2.1c-0.1-0.3,0-0.3,0.7-0.3l0.7,0l-0.6-0.3 c-0.7-0.4-1.4-1-1.7-1.6C8,15.2,7.7,14,7.7,13.9c0,0,0.3,0,0.6,0.1c0.9,0.3,1,0.2,0.5-0.3c-1-1-1.2-2.4-0.8-3.8l0.2-0.6l0.8,0.8 c1.7,1.7,3.7,2.7,6.1,3l0.6,0.1l0-0.6c-0.1-1.6,0.9-3.1,2.5-3.7c0.6-0.2,1.6-0.2,2.2-0.1c0.3,0.1,0.7,0.3,1.1,0.6l0.6,0.4l0.7-0.2 c0.4-0.1,0.9-0.3,1.1-0.4C24.2,9.1,24.4,9,24.4,9c0,0.2-0.5,1-0.9,1.4C23,11,23.1,11,24.2,10.7C24.8,10.4,24.9,10.4,24.7,10.7z"/></svg>
