<svg version="1.1" xmlns="http://www.w3.org/2000/svg" viewBox="0 0 512 512" style="" xml:space="preserve"><circle style="fill:#FFFFFF;stroke:#000000;stroke-miterlimit:10;" cx="256" cy="256" r="241"/><path style="fill:#E1306C;" d="M256,0C114.6,0,0,114.6,0,256s114.6,256,256,256s256-114.6,256-256S397.4,0,256,0z M256,472 c-119.3,0-216-96.7-216-216S136.7,40,256,40s216,96.7,216,216S375.3,472,256,472z"/><path style="fill:#E1306C;" d="M409.5,192.3c-0.2-12.8-2.6-25.5-7.1-37.5c-8.1-20.7-24.3-37.1-45.1-45.1c-12-4.5-24.7-6.9-37.5-7.1 c-16.4-0.9-21.7-1.1-63.7-1.1c-42,0-47.3,0.1-63.8,0.9c-12.8,0.2-25.4,2.6-37.5,7.1c-20.7,8-37.1,24.3-45.1,45.1 c-4.4,12-6.8,24.7-7.1,37.5c-0.8,16.5-1,21.7-1,63.8c0,41.9,0.1,47.2,1,63.7c0.2,12.8,2.6,25.5,7.1,37.5 c8,20.7,24.3,37.1,45.1,45.1c12,4.5,24.7,6.9,37.5,7.1c16.5,1,21.7,1.1,63.8,1.1c41.9,0,47.3-0.2,63.7-0.9 c12.8-0.2,25.5-2.7,37.5-7.2c20.8-8,37.2-24.3,45.1-45.1c4.5-12,6.9-24.6,7.1-37.4c0.7-16.5,1-21.7,1-63.8 C410.5,214.1,410.2,208.7,409.5,192.3z M381.8,318.5c-0.1,9.7-1.9,19.5-5.3,28.6c-5.1,13.5-15.8,24.1-29.3,29.3 c-9.1,3.4-18.9,5.2-28.6,5.3c-16.4,0.7-21.3,0.8-62.5,0.8c-41.3,0-46.2-0.1-62.5-0.8c-9.7-0.1-19.5-1.9-28.7-5.3 c-13.4-5.2-24.1-15.8-29.3-29.3c-3.3-9.1-5.1-18.9-5.2-28.6c-0.7-16.4-1-21.3-1-62.5c0-41.2,0.2-46.2,1-62.5 c0.1-9.9,1.9-19.5,5.2-28.7c2.5-6.7,6.5-12.7,11.6-17.7c5-5.2,11-9.1,17.7-11.6c9.3-3.3,19-5.1,28.7-5.2c16.3-0.8,21.1-1,62.5-1 c41.2,0,46.1,0.1,62.5,1c9.7,0.1,19.5,1.9,28.6,5.2c6.8,2.5,12.8,6.4,17.8,11.6c5.1,5,9,11,11.5,17.7c3.4,9.3,5.2,18.9,5.3,28.7 c0.7,16.3,1,21.1,1,62.5C382.8,297.2,382.5,302.1,381.8,318.5z"/><path style="fill:#E1306C;" d="M256.1,176.7c-43.8,0-79.3,35.5-79.3,79.3s35.5,79.3,79.3,79.3s79.3-35.5,79.3-79.3 S299.9,176.7,256.1,176.7z M256.1,307.4c-28.5,0-51.5-23-51.5-51.4c0-28.5,23.2-51.5,51.5-51.5c28.5,0,51.5,23,51.5,51.5 C307.6,284.4,284.6,307.4,256.1,307.4z"/><circle style="fill:#E1306C;" cx="338.5" cy="173.5" r="18.5"/></svg>
