<svg version="1.1" xmlns="http://www.w3.org/2000/svg" viewBox="0 0 512 512" xml:space="preserve"><circle class="layer_1" style="fill: #FFFFFF; stroke: #000000; stroke-miterlimit: 10;" cx="256" cy="256" r="241"/><path class="layer_2" style="fill: #CC181E;" d="M256,0C114.6,0,0,114.6,0,256s114.6,256,256,256s256-114.6,256-256S397.4,0,256,0z M256,472 c-119.3,0-216-96.7-216-216S136.7,40,256,40s216,96.7,216,216S375.3,472,256,472z"/><path class="layer_2" style="fill: #CC181E;" d="M213.4,110.3l-11.6,45h-1.1l-12.2-45h-18.9l23.9,74.6v31.4h13.8v-33.5l25-72.5H213.4z M273.2,159.2 c0-6.4-2-12.5-5.7-16.2c-4.2-4.2-6.3-6.6-13.2-6.6c-7.5,0-9.7,2.8-14.1,6.6s-6.5,9.3-6.5,15.7v34.8c0,7.1,2.2,12.6,6.6,16.8 c4.4,4.2,6.5,6.1,13.7,6.1c7.5,0,8.5-2,12.9-6c4.3-4,6.4-9.6,6.4-16.7V159.2z M326.2,136.5h-13.3v53.1c-1.6,1.8-8.5,11.3-9.8,11.3 c-1,0.1-2-0.4-2.5-1.4c-0.8-1.3-1.1-2.7-1-4.2v-58.7h-13.3v64.4c0,5,0.5,12.3,3.1,15c1.8,1.8,7.5,2.2,12.8-1.8 c4-3.1,7.3-7.3,10.8-13.7v14.1h13.3V136.5z M405.9,296.9c0-30.1-23.8-54.4-53.3-54.4H167.7c-29.4,0-53.3,24.4-53.3,54.4v50.4 c0,30.1,23.8,54.4,53.3,54.4h185c29.4,0,53.3-24.4,53.3-54.4v-50.4H405.9z M332.6,375.1c-6.1,0-10.9-1.9-14.3-5.8 c-3.4-3.8-5.2-9-5.2-15.7v-31.3c0-6,1.9-17.1,5.7-20.8c3.8-3.8,8.8-5.7,14.8-5.7c6.3,0,10.9,1.7,14.2,5.2c3.3,3.5,5,14.8,5,21.3 v13.2h-25.8v17.6c0,3.6,0.5,6.3,1.4,7.6c1,1.5,2.8,2.3,4.6,2.2c2.2,0,3.8-0.6,4.7-1.8c0.9-1.3,1.4-3.8,1.4-8v-3.2h13.9v3.6 c0,7.2-1.6,12.5-5,16.2S339.2,375.1,332.6,375.1L332.6,375.1z M338.8,324.7v-2.5c0-3-0.5-11.2-1.4-12.4c-2.4-2.5-6.4-2.6-9-0.2 c-0.1,0.1-0.1,0.1-0.2,0.2c-0.9,1.3-1.4,9.4-1.4,12.4v2.5H338.8z M287.3,375.2c-2.5,0.1-5-0.5-7.3-1.7c-2.3-1.2-4.3-2.9-5.9-4.9v5.6 h-14V269h13.2v31.8c2-2,4.3-3.7,6.7-5.1c2-1.1,4.2-1.7,6.5-1.7c3.9-0.2,7.7,1.5,10,4.7c2.3,3.1,3.4,7.6,3.4,13.5V359 c0,5.1-1.1,9.1-3.2,11.8C294.5,373.8,290.9,375.4,287.3,375.2L287.3,375.2z M286.8,313.2c0-2.4-1.7-4.3-2.6-5.6 c-1.1-1.2-2.7-1.9-4.3-1.8c-1,0-2,0.2-3,0.7c-1.3,0.5-2.5,1.3-3.6,2.2v51.8c1.2,1.1,2.7,1.9,4.2,2.5c1,0.5,2.2,0.8,3.3,0.8 c1.4,0.1,2.8-0.5,3.8-1.6c0.8-1,2.4-2.6,2.4-5L286.8,313.2L286.8,313.2z M233,365.5c-2.5,2.8-5.2,5.9-8,7.5 c-2.4,1.5-5.2,2.3-8.1,2.3c-2.8,0.2-5.5-1-7.3-3.2c-2-2.8-3-6.2-2.8-9.7v-66.6h13.4v61.6c-0.1,1.3,0.2,2.6,0.9,3.6 c0.7,0.8,1.8,1.2,2.8,1.1c1.7-0.1,3.3-0.6,4.7-1.6c1.9-1,3.6-2.3,5.1-3.8v-61h13.1v79.2H233L233,365.5L233,365.5z M193.9,375h-13.3 v-92.7h-13v-13.2h39.8v13.2H194L193.9,375L193.9,375z M253.5,202.3c-1.9,0.1-3.7-0.5-5-1.8c-1.3-1.4-2-3.3-1.8-5.2v-37 c0-1.7,0.7-3.3,1.9-4.4c1.3-1.2,3.1-1.8,4.9-1.7c1.7-0.1,3.3,0.5,4.6,1.7c1.4,1.1,2.1,2.7,2,4.4v37c0.1,2-0.6,3.9-2,5.2 C256.9,201.7,255.2,202.4,253.5,202.3L253.5,202.3z"/></svg>
