<svg xmlns="http://www.w3.org/2000/svg" width="20" height="20" viewBox="0 0 24 24" style="fill: #314471"><path d="M12,0A12,12,0,1,0,24,12,12,12,0,0,0,12,0Zm0,2A10,10,0,0,1,22,12a10.12,10.12,0,0,1-.2,2h-1c-1,0-1.13-.51-1.66-2.46-.38-1.42-1-3.55-2.41-3.55s-2,2.21-2.48,4c-.28,1-.44,1.56-.69,1.56S13.23,13,13,12c-.53-1.82-1.13-4-2.54-4S8.32,10.38,7.9,11.9c-.3,1.1-.39,1.66-.66,1.66s-.31-.45-.57-1.35C6.07,10.17,5.88,8,3.19,8H2.84A10,10,0,0,1,12,2Zm0,20A10,10,0,0,1,2,12a10.12,10.12,0,0,1,.2-2H3.27c.94,0,1,.47,1.56,2.43.35,1.33,1,3.56,2.4,3.56s2-2.26,2.58-4.14c.3-1,.36-1.43.6-1.43s.33.47.62,1.49c.52,1.85,1.13,4.08,2.56,4.08,1.28,0,1.89-1.84,2.33-3.32.51-1.68.58-2.31.84-2.31s.31.55.77,2.08C18.27,14.9,18.73,16,20.7,16h.46A10,10,0,0,1,12,22Z"/></svg>
