<svg xmlns="http://www.w3.org/2000/svg" width="24" viewBox="0 0 20 24" style="fill: #314471"><path d="M13.45,0C10,0,6.91,2.31,6.91,5.47A4.77,4.77,0,0,0,8,8.54,8.72,8.72,0,0,1,6.94,12a15.78,15.78,0,0,0,4.35-1.39,9.23,9.23,0,0,0,2.21.28c3.87,0,6.5-2.64,6.5-5.44C20,2.29,16.89,0,13.45,0Zm-2.3,6.76a1.41,1.41,0,0,1-.87.24,1.93,1.93,0,0,1-.85-.18l.14-.54a1.74,1.74,0,0,0,.75.19.55.55,0,0,0,.34-.09.26.26,0,0,0,0-.44,1.22,1.22,0,0,0-.38-.18c-.55-.18-.82-.47-.82-.86a.76.76,0,0,1,.3-.62A1.26,1.26,0,0,1,10.58,4a1.89,1.89,0,0,1,.77.15l-.15.53a1.38,1.38,0,0,0-.63-.14.55.55,0,0,0-.31.07.24.24,0,0,0,0,.4,1.92,1.92,0,0,0,.45.21,1.38,1.38,0,0,1,.59.35.74.74,0,0,1,.18.51A.79.79,0,0,1,11.15,6.76Zm3.32.2C14.42,5.82,14.4,5,14.4,4.64h0c-.07.3-.31,1.06-.7,2.27h-.52c-.24-.83-.59-2.27-.59-2.27h0L12.47,7h-.61L12,4.08h.89l.51,2,.62-2H15L15.12,7Zm2.78-.19a1.38,1.38,0,0,1-.88.25,1.83,1.83,0,0,1-.86-.19l.14-.57a1.68,1.68,0,0,0,.76.19.63.63,0,0,0,.34-.08.26.26,0,0,0,0-.42,1.35,1.35,0,0,0-.38-.18q-.84-.27-.84-.87a.79.79,0,0,1,.31-.63A1.25,1.25,0,0,1,16.67,4a1.86,1.86,0,0,1,.77.15h0l-.15.55a1.58,1.58,0,0,0-.64-.15.57.57,0,0,0-.31.08.22.22,0,0,0,0,.37,1.65,1.65,0,0,0,.45.2,1.45,1.45,0,0,1,.59.36.77.77,0,0,1,.19.52A.81.81,0,0,1,17.25,6.77ZM10,13.32V18H2V8H5.41a6.64,6.64,0,0,1-.33-4H2A2,2,0,0,0,0,6V20.68C0,22.89,2.5,24,6,24s6-1.11,6-3.32V12.61A6.47,6.47,0,0,1,10,13.32ZM6,22a1,1,0,1,1,1-1A1,1,0,0,1,6,22Z"/></svg>
